<?xml version="1.0" standalone="no"?>
<!DOCTYPE svg PUBLIC "-//W3C//DTD SVG 20010904//EN"
 "http://www.w3.org/TR/2001/REC-SVG-20010904/DTD/svg10.dtd">
<svg version="1.0" xmlns="http://www.w3.org/2000/svg"
 width="500.000000pt" height="500.000000pt" viewBox="0 0 500.000000 500.000000"
 preserveAspectRatio="xMidYMid meet">
<metadata>
Created by potrace 1.14, written by Peter Selinger 2001-2017
</metadata>
<g transform="translate(0.000000,500.000000) scale(0.100000,-0.100000)"
fill="#000000" stroke="none">
<path d="M789 3971 c0 -46 0 -2942 1 -2958 0 -10 67 -13 303 -13 l302 0 0
1502 -1 1503 -302 1 -302 1 -1 -36z"/>
<path d="M1979 4006 c-4 -3 -4 -2974 -1 -2989 4 -16 27 -17 303 -17 l299 0 0
625 0 625 26 6 c23 6 93 3 294 -11 87 -7 196 -60 272 -133 47 -45 227 -279
263 -342 5 -11 51 -79 100 -152 50 -73 164 -242 254 -375 l163 -243 353 0
c195 0 356 4 359 8 4 7 -46 89 -180 299 -19 29 -34 57 -34 63 0 5 -4 10 -10
10 -5 0 -10 5 -10 10 0 6 -5 16 -10 23 -6 7 -68 103 -138 215 -240 382 -356
515 -562 648 -25 16 -51 34 -58 41 -14 14 -14 14 101 38 345 75 567 279 642
590 20 85 24 121 21 235 -2 142 -4 154 -37 263 -19 63 -83 196 -99 207 -4 3
-14 19 -23 35 -36 70 -182 186 -293 233 -49 20 -158 48 -219 56 -16 2 -41 6
-55 10 -65 15 -231 19 -947 21 -425 1 -774 1 -774 1z m1501 -520 c48 -6 91
-16 104 -24 6 -3 16 -7 22 -8 25 -4 94 -56 127 -96 68 -84 90 -222 57 -351
-20 -77 -45 -121 -97 -168 -70 -63 -138 -83 -332 -96 -97 -6 -740 -10 -763 -5
-17 4 -18 30 -18 377 0 283 3 374 12 377 16 6 842 0 888 -6z"/>
</g>
</svg>
